<?xml version="1.0" standalone="no"?>
<!DOCTYPE svg PUBLIC "-//W3C//DTD SVG 20010904//EN"
 "http://www.w3.org/TR/2001/REC-SVG-20010904/DTD/svg10.dtd">
<svg version="1.0" xmlns="http://www.w3.org/2000/svg"
 width="200.000000pt" height="200.000000pt" viewBox="0 0 200.000000 200.000000"
 preserveAspectRatio="xMidYMid meet">
<metadata>
Created by potrace 1.11, written by Peter Selinger 2001-2013
</metadata>
<g transform="translate(0.000000,200.000000) scale(0.100000,-0.100000)"
fill="#000000" stroke="none">
<path d="M0 1000 l0 -1000 1000 0 1000 0 0 1000 0 1000 -1000 0 -1000 0 0
-1000z m478 228 c5 -7 13 -31 16 -53 10 -59 23 -76 31 -42 8 30 20 35 29 12 3
-9 -1 -18 -9 -21 -8 -4 -15 -13 -15 -21 0 -9 -6 -13 -15 -9 -8 3 -15 1 -15 -4
0 -6 10 -11 23 -11 16 -1 18 -2 5 -6 -11 -3 -18 -14 -18 -30 0 -21 2 -24 15
-13 20 17 19 1 -2 -22 -21 -23 -5 -23 24 1 18 15 22 28 22 86 0 37 4 72 10 78
16 16 39 0 43 -30 l3 -28 15 30 c9 17 25 31 38 33 25 4 26 3 12 -32 -6 -16 -6
-27 0 -31 6 -4 10 -26 10 -51 0 -37 -3 -44 -19 -44 -14 0 -21 8 -23 27 -4 41
-38 44 -38 4 0 -20 -6 -31 -17 -33 -10 -3 1 -8 25 -12 42 -8 155 3 119 11 -16
4 -17 14 -15 81 3 71 5 77 25 80 15 2 26 -5 36 -24 l14 -27 18 27 c12 18 25
26 39 24 19 -3 21 -10 24 -80 2 -43 7 -78 12 -78 6 0 10 9 10 20 0 11 7 20 15
20 21 0 20 59 -2 75 -31 23 -9 45 47 45 47 0 50 -2 50 -25 0 -16 -6 -25 -15
-25 -10 0 -15 -11 -15 -35 0 -24 5 -35 15 -35 8 0 15 -7 15 -15 0 -9 6 -12 15
-9 11 5 15 23 15 76 0 66 1 69 23 66 19 -3 22 -10 25 -60 3 -57 19 -77 29 -38
3 11 14 20 24 20 15 0 19 -7 19 -35 0 -24 5 -35 15 -35 12 0 15 15 15 75 l0
75 56 0 c52 0 55 -1 52 -22 -2 -17 -11 -24 -33 -27 -29 -4 -30 -4 -5 -10 35
-10 40 -41 6 -41 -14 0 -26 -4 -26 -10 0 -5 14 -10 30 -10 20 0 30 -5 30 -15
0 -8 7 -15 15 -15 12 0 15 14 15 65 0 71 11 85 67 85 53 0 65 -19 61 -88 -3
-54 -1 -62 15 -62 15 0 17 10 17 75 0 84 10 93 51 49 l24 -26 5 24 c4 14 14
24 28 26 21 3 22 0 22 -77 0 -80 0 -81 -25 -81 -17 0 -25 5 -25 18 0 10 -7 27
-15 38 -13 18 -14 16 -16 -21 -1 -22 -1 -44 0 -49 1 -5 -5 -4 -13 4 -17 13
-198 11 -212 -3 -4 -3 1 -18 10 -33 10 -14 15 -28 12 -31 -3 -3 -14 10 -26 29
l-20 35 -118 6 c-99 6 -136 3 -223 -15 -57 -11 -128 -23 -156 -25 -58 -5 -58
-5 -43 -34 15 -26 -11 -26 -35 1 -25 28 -42 25 -60 -10 -22 -42 -47 -52 -117
-46 -73 5 -135 47 -130 87 1 17 0 20 -7 10 -17 -26 -34 27 -27 83 4 28 7 62 6
76 0 24 53 100 70 100 4 0 12 -6 18 -12z"/>
<path d="M420 1190 c0 -5 5 -10 10 -10 6 0 10 5 10 10 0 6 -4 10 -10 10 -5 0
-10 -4 -10 -10z"/>
<path d="M1384 1127 c-10 -27 0 -62 19 -65 16 -3 18 2 15 34 -3 39 -24 57 -34
31z"/>
<path d="M780 1056 c0 -33 2 -36 30 -36 28 0 30 3 30 36 0 31 -2 35 -15 24
-12 -10 -18 -10 -30 0 -13 11 -15 7 -15 -24z"/>
<path d="M407 1069 c7 -7 15 -10 18 -7 3 3 -2 9 -12 12 -14 6 -15 5 -6 -5z"/>
<path d="M425 1030 c-3 -5 -1 -10 4 -10 6 0 11 5 11 10 0 6 -2 10 -4 10 -3 0
-8 -4 -11 -10z"/>
<path d="M410 1006 c0 -2 7 -7 16 -10 8 -3 12 -2 9 4 -6 10 -25 14 -25 6z"/>
<path d="M500 962 c0 -16 64 -52 92 -52 27 0 48 17 48 39 0 11 -5 9 -16 -7
-19 -27 -28 -28 -54 -2 -22 22 -70 37 -70 22z"/>
<path d="M576 949 c6 -11 44 -12 44 -1 0 4 -11 8 -25 8 -14 1 -22 -2 -19 -7z"/>
<path d="M515 900 c-3 -6 1 -7 9 -4 18 7 21 14 7 14 -6 0 -13 -4 -16 -10z"/>
</g>
</svg>
